<svg width="1440" height="1016" viewBox="0 0 1440 1016" fill="none" xmlns="http://www.w3.org/2000/svg">
<g clip-path="url(#clip0_143_374)">
<rect width="1016" height="1440" transform="translate(1440) rotate(90)" fill="white"/>
<path d="M463 521L373 431" stroke="#C8C8C8" stroke-width="0.5" stroke-miterlimit="10" stroke-linecap="round"/>
<path d="M448 521L358 431" stroke="#C8C8C8" stroke-width="0.5" stroke-miterlimit="10" stroke-linecap="round"/>
<path d="M433 521L343 431" stroke="#C8C8C8" stroke-width="0.5" stroke-miterlimit="10" stroke-linecap="round"/>
<path d="M418 521L328 431" stroke="#C8C8C8" stroke-width="0.5" stroke-miterlimit="10" stroke-linecap="round"/>
<path d="M508 521L418 431" stroke="#C8C8C8" stroke-width="0.5" stroke-miterlimit="10" stroke-linecap="round"/>
<path d="M493 521L403 431" stroke="#C8C8C8" stroke-width="0.5" stroke-miterlimit="10" stroke-linecap="round"/>
<path d="M478 521L388 431" stroke="#C8C8C8" stroke-width="0.5" stroke-miterlimit="10" stroke-linecap="round"/>
<path d="M403 521L328 446" stroke="#C8C8C8" stroke-width="0.5" stroke-miterlimit="10" stroke-linecap="round"/>
<path d="M388 521L328 461" stroke="#C8C8C8" stroke-width="0.5" stroke-miterlimit="10" stroke-linecap="round"/>
<path d="M373 521L328 476" stroke="#C8C8C8" stroke-width="0.5" stroke-miterlimit="10" stroke-linecap="round"/>
<path d="M358 521L328 491" stroke="#C8C8C8" stroke-width="0.5" stroke-miterlimit="10" stroke-linecap="round"/>
<path d="M343 521L328 506" stroke="#C8C8C8" stroke-width="0.5" stroke-miterlimit="10" stroke-linecap="round"/>
<path d="M433 431L508 506" stroke="#C8C8C8" stroke-width="0.5" stroke-miterlimit="10" stroke-linecap="round"/>
<path d="M448 431L508 491" stroke="#C8C8C8" stroke-width="0.5" stroke-miterlimit="10" stroke-linecap="round"/>
<path d="M463 431L508 476" stroke="#C8C8C8" stroke-width="0.5" stroke-miterlimit="10" stroke-linecap="round"/>
<path d="M478 431L508 461" stroke="#C8C8C8" stroke-width="0.5" stroke-miterlimit="10" stroke-linecap="round"/>
<path d="M493 431L508 446" stroke="#C8C8C8" stroke-width="0.5" stroke-miterlimit="10" stroke-linecap="round"/>
<path d="M328 611L238 521" stroke="#C8C8C8" stroke-width="0.5" stroke-miterlimit="10" stroke-linecap="round"/>
<path d="M313 611L238 536" stroke="#C8C8C8" stroke-width="0.5" stroke-miterlimit="10" stroke-linecap="round"/>
<path d="M298 611L238 551" stroke="#C8C8C8" stroke-width="0.5" stroke-miterlimit="10" stroke-linecap="round"/>
<path d="M283 611L238 566" stroke="#C8C8C8" stroke-width="0.5" stroke-miterlimit="10" stroke-linecap="round"/>
<path d="M268 611L238 581" stroke="#C8C8C8" stroke-width="0.5" stroke-miterlimit="10" stroke-linecap="round"/>
<path d="M253 611L238 596" stroke="#C8C8C8" stroke-width="0.5" stroke-miterlimit="10" stroke-linecap="round"/>
<path d="M253 521L328 596" stroke="#C8C8C8" stroke-width="0.5" stroke-miterlimit="10" stroke-linecap="round"/>
<path d="M268 521L328 581" stroke="#C8C8C8" stroke-width="0.5" stroke-miterlimit="10" stroke-linecap="round"/>
<path d="M283 521L328 566" stroke="#C8C8C8" stroke-width="0.5" stroke-miterlimit="10" stroke-linecap="round"/>
<path d="M298 521L328 551" stroke="#C8C8C8" stroke-width="0.5" stroke-miterlimit="10" stroke-linecap="round"/>
<path d="M313 521L328 536" stroke="#C8C8C8" stroke-width="0.5" stroke-miterlimit="10" stroke-linecap="round"/>
<path d="M58 926L-32 836" stroke="#C8C8C8" stroke-width="0.5" stroke-miterlimit="10" stroke-linecap="round"/>
<path d="M43 926L-32 851" stroke="#C8C8C8" stroke-width="0.5" stroke-miterlimit="10" stroke-linecap="round"/>
<path d="M28 926L-32 866" stroke="#C8C8C8" stroke-width="0.5" stroke-miterlimit="10" stroke-linecap="round"/>
<path d="M13 926L-32 881" stroke="#C8C8C8" stroke-width="0.5" stroke-miterlimit="10" stroke-linecap="round"/>
<path d="M-17 836L58 911" stroke="#C8C8C8" stroke-width="0.5" stroke-miterlimit="10" stroke-linecap="round"/>
<path d="M-2 836L58 896" stroke="#C8C8C8" stroke-width="0.5" stroke-miterlimit="10" stroke-linecap="round"/>
<path d="M13 836L58 881" stroke="#C8C8C8" stroke-width="0.5" stroke-miterlimit="10" stroke-linecap="round"/>
<path d="M28 836L58 866" stroke="#C8C8C8" stroke-width="0.5" stroke-miterlimit="10" stroke-linecap="round"/>
<path d="M43 836L58 851" stroke="#C8C8C8" stroke-width="0.5" stroke-miterlimit="10" stroke-linecap="round"/>
<path d="M148 1016L58 926" stroke="#C8C8C8" stroke-width="0.5" stroke-miterlimit="10" stroke-linecap="round"/>
<path d="M133 1016L58 941" stroke="#C8C8C8" stroke-width="0.5" stroke-miterlimit="10" stroke-linecap="round"/>
<path d="M118 1016L58 956" stroke="#C8C8C8" stroke-width="0.5" stroke-miterlimit="10" stroke-linecap="round"/>
<path d="M103 1016L58 971" stroke="#C8C8C8" stroke-width="0.5" stroke-miterlimit="10" stroke-linecap="round"/>
<path d="M88 1016L58 986" stroke="#C8C8C8" stroke-width="0.5" stroke-miterlimit="10" stroke-linecap="round"/>
<path d="M73 1016L58 1001" stroke="#C8C8C8" stroke-width="0.5" stroke-miterlimit="10" stroke-linecap="round"/>
<path d="M73 926L148 1001" stroke="#C8C8C8" stroke-width="0.5" stroke-miterlimit="10" stroke-linecap="round"/>
<path d="M88 926L148 986" stroke="#C8C8C8" stroke-width="0.5" stroke-miterlimit="10" stroke-linecap="round"/>
<path d="M103 926L148 971" stroke="#C8C8C8" stroke-width="0.5" stroke-miterlimit="10" stroke-linecap="round"/>
<path d="M118 926L148 956" stroke="#C8C8C8" stroke-width="0.5" stroke-miterlimit="10" stroke-linecap="round"/>
<path d="M133 926L148 941" stroke="#C8C8C8" stroke-width="0.5" stroke-miterlimit="10" stroke-linecap="round"/>
<path d="M418 -919L418 881" stroke="#C8C8C8" stroke-width="0.5" stroke-miterlimit="10"/>
<path d="M328 -919L328 881" stroke="#C8C8C8" stroke-width="0.5" stroke-miterlimit="10"/>
<path d="M238 -919L238 881" stroke="#C8C8C8" stroke-width="0.5" stroke-miterlimit="10"/>
<path d="M148 -919L148 881" stroke="#C8C8C8" stroke-width="0.5" stroke-miterlimit="10"/>
<path d="M58 -919L57.9999 881" stroke="#C8C8C8" stroke-width="0.5" stroke-miterlimit="10"/>
<path d="M508 251L-32 251" stroke="#C8C8C8" stroke-width="0.5" stroke-miterlimit="10"/>
<path d="M508 161L-32 161" stroke="#C8C8C8" stroke-width="0.5" stroke-miterlimit="10"/>
<path d="M508 71L-32 71" stroke="#C8C8C8" stroke-width="0.5" stroke-miterlimit="10"/>
<path d="M508 881L-32 881" stroke="#C8C8C8" stroke-width="0.5" stroke-miterlimit="10"/>
<path d="M508 791L-32 791" stroke="#C8C8C8" stroke-width="0.5" stroke-miterlimit="10"/>
<path d="M508 701L-32 701" stroke="#C8C8C8" stroke-width="0.5" stroke-miterlimit="10"/>
<path d="M508 611L-32 611" stroke="#C8C8C8" stroke-width="0.5" stroke-miterlimit="10"/>
<path d="M508 521L-32 521" stroke="#C8C8C8" stroke-width="0.5" stroke-miterlimit="10"/>
<path d="M508 431L-32 431" stroke="#C8C8C8" stroke-width="0.5" stroke-miterlimit="10"/>
<path d="M508 341L-32 341" stroke="#C8C8C8" stroke-width="0.5" stroke-miterlimit="10"/>
<path d="M508 -919L508 881" stroke="#C8C8C8" stroke-width="0.5" stroke-miterlimit="10"/>
</g>
<defs>
<clipPath id="clip0_143_374">
<rect width="1016" height="1440" fill="white" transform="translate(1440) rotate(90)"/>
</clipPath>
</defs>
</svg>
