<svg width="127" height="40" viewBox="0 0 127 40" fill="none" xmlns="http://www.w3.org/2000/svg">
<path fill-rule="evenodd" clip-rule="evenodd" d="M40.4 0H0V40H40.4V0ZM16.1811 8.22794C17.1348 7.23124 18.4605 6.66667 19.8472 6.66667H29.8732C30.2481 6.66667 30.4358 7.11548 30.1707 7.37796L24.7271 12.7677C23.8194 13.6664 22.6 14.1892 21.317 14.2296L10.1 14.5833L16.1811 8.22794ZM15.6729 27.2323C16.5806 26.3335 17.7999 25.8108 19.083 25.7704L30.3 25.4167L24.2189 31.7721C23.2652 32.7688 21.9395 33.3333 20.5528 33.3333H10.5268C10.1519 33.3333 9.96412 32.8845 10.2292 32.622L15.6729 27.2323ZM17.17 16.25H23.23V23.75H17.17V16.25ZM16.16 15.25L10.1 14.9167V16.3986C10.1 17.1003 10.3979 17.7697 10.9208 18.2433L16.8333 23.75L16.16 15.25ZM23.5667 16.25L29.4791 21.7567C30.0021 22.2303 30.3 22.8997 30.3 23.6014V25.0833L24.24 24.75L23.5667 16.25Z" fill="#A51535"/>
<path d="M16.1807 8.22802C17.1344 7.23132 18.4601 6.66675 19.8468 6.66675H29.8728C30.2477 6.66675 30.4355 7.11556 30.1704 7.37804L24.7267 12.7678C23.819 13.6665 22.5996 14.1893 21.3166 14.2297L10.0996 14.5834L16.1807 8.22802Z" fill="white"/>
<path d="M15.6725 27.2324C16.5802 26.3336 17.7996 25.8109 19.0826 25.7704L30.2996 25.4167L24.2185 31.7721C23.2648 32.7688 21.9391 33.3334 20.5524 33.3334H10.5264C10.1515 33.3334 9.96374 32.8846 10.2289 32.6221L15.6725 27.2324Z" fill="white"/>
<path d="M23.2296 16.2501H17.1696V23.7501H23.2296V16.2501Z" fill="white"/>
<path d="M16.1596 15.2501L10.0996 14.9167V16.3987C10.0996 17.1004 10.3975 17.7698 10.9205 18.2434L16.8329 23.7501L16.1596 15.2501Z" fill="white"/>
<path d="M29.4787 21.7567L23.5663 16.2501L24.2396 24.7501L30.2996 25.0834V23.6015C30.2996 22.8998 30.0017 22.2303 29.4787 21.7567Z" fill="white"/>
<path d="M52.7888 17.57C51.6711 17.57 50.6947 17.3967 49.8598 17.05C49.0383 16.69 48.3987 16.1833 47.9408 15.53C47.4964 14.8633 47.2742 14.0967 47.2742 13.23V12.85C47.2742 12.7833 47.2944 12.73 47.3348 12.69C47.3887 12.6367 47.4493 12.61 47.5166 12.61H50.3244C50.3917 12.61 50.4456 12.6367 50.486 12.69C50.5399 12.73 50.5668 12.7833 50.5668 12.85V13.09C50.5668 13.53 50.789 13.9167 51.2334 14.25C51.6778 14.57 52.2771 14.73 53.0312 14.73C53.6237 14.73 54.0614 14.6033 54.3442 14.35C54.627 14.0967 54.7684 13.8033 54.7684 13.47C54.7684 13.2033 54.6809 12.99 54.5058 12.83C54.3442 12.6567 54.122 12.5167 53.8392 12.41C53.5564 12.29 53.1187 12.13 52.5262 11.93C52.4454 11.89 52.3646 11.8633 52.2838 11.85C52.203 11.8233 52.1289 11.7967 52.0616 11.77C51.1863 11.49 50.4254 11.19 49.779 10.87C49.1326 10.5367 48.5805 10.0833 48.1226 9.51C47.6647 8.92333 47.4358 8.20333 47.4358 7.35C47.4358 6.52333 47.6513 5.80333 48.0822 5.19C48.5266 4.56333 49.1393 4.08333 49.9204 3.75C50.7015 3.41667 51.5835 3.25 52.5666 3.25C53.6035 3.25 54.5327 3.43667 55.3542 3.81C56.1891 4.18333 56.8423 4.71 57.3136 5.39C57.7849 6.07 58.0206 6.85 58.0206 7.73V8.01C58.0206 8.07667 57.9937 8.13667 57.9398 8.19C57.8994 8.23 57.8455 8.25 57.7782 8.25H54.9704C54.9031 8.25 54.8425 8.23 54.7886 8.19C54.7482 8.13667 54.728 8.07667 54.728 8.01V7.87C54.728 7.40333 54.5193 6.99 54.1018 6.63C53.6843 6.27 53.1255 6.09 52.4252 6.09C51.9 6.09 51.4893 6.19667 51.193 6.41C50.8967 6.62333 50.7486 6.92333 50.7486 7.31C50.7486 7.60333 50.8429 7.85 51.0314 8.05C51.2199 8.23667 51.5095 8.41667 51.9 8.59C52.304 8.75 52.9167 8.96333 53.7382 9.23C54.6809 9.55 55.4148 9.83 55.94 10.07C56.4652 10.31 56.9567 10.7033 57.4146 11.25C57.8859 11.7833 58.1216 12.49 58.1216 13.37C58.1216 14.2367 57.8994 14.9833 57.455 15.61C57.0106 16.2367 56.3844 16.7233 55.5764 17.07C54.7819 17.4033 53.8527 17.57 52.7888 17.57Z" fill="#353535"/>
<path d="M69.3184 17.41C69.1703 17.41 69.076 17.3433 69.0356 17.21L68.5104 15.43C68.4835 15.3767 68.4498 15.35 68.4094 15.35H63.8038C63.7634 15.35 63.7298 15.3767 63.7028 15.43L63.1776 17.21C63.1372 17.3433 63.043 17.41 62.8948 17.41H59.8043C59.7235 17.41 59.6629 17.39 59.6225 17.35C59.5821 17.2967 59.5753 17.2233 59.6023 17.13L63.925 3.61C63.9654 3.47667 64.053 3.41 64.1876 3.41H68.0054C68.1401 3.41 68.2276 3.47667 68.268 3.61L72.611 17.13C72.6245 17.1567 72.6312 17.19 72.6312 17.23C72.6312 17.35 72.5572 17.41 72.409 17.41H69.3184ZM64.5108 12.67C64.4974 12.75 64.5243 12.79 64.5916 12.79H67.6014C67.6822 12.79 67.7092 12.75 67.6822 12.67L66.147 7.53C66.1336 7.47667 66.1134 7.45667 66.0864 7.47C66.0595 7.47 66.0393 7.49 66.0258 7.53L64.5108 12.67Z" fill="#353535"/>
<path d="M79.1278 17.57C78.0505 17.57 77.1011 17.3567 76.2796 16.93C75.4716 16.5033 74.8387 15.9033 74.3808 15.13C73.9364 14.3567 73.7142 13.4633 73.7142 12.45V8.35C73.7142 7.33667 73.9364 6.45 74.3808 5.69C74.8387 4.91667 75.4716 4.31667 76.2796 3.89C77.1011 3.46333 78.0505 3.25 79.1278 3.25C80.1917 3.25 81.1343 3.45667 81.9558 3.87C82.7773 4.27 83.4102 4.82333 83.8546 5.53C84.3125 6.23667 84.5414 7.01667 84.5414 7.87V7.97C84.5414 8.03667 84.5145 8.09667 84.4606 8.15C84.4202 8.19 84.3663 8.21 84.299 8.21H81.4306C81.3633 8.21 81.3027 8.19 81.2488 8.15C81.2084 8.09667 81.1882 8.03667 81.1882 7.97C81.1882 7.45 80.9997 7.01 80.6226 6.65C80.259 6.27667 79.7607 6.09 79.1278 6.09C78.5083 6.09 78.0101 6.29 77.633 6.69C77.2559 7.09 77.0674 7.61 77.0674 8.25V12.55C77.0674 13.19 77.2761 13.71 77.6936 14.11C78.1111 14.51 78.6363 14.71 79.2692 14.71C79.8617 14.71 80.3398 14.5567 80.7034 14.25C81.067 13.93 81.2488 13.49 81.2488 12.93V12.37C81.2488 12.3033 81.2151 12.27 81.1478 12.27H79.1278C79.0605 12.27 78.9999 12.25 78.946 12.21C78.9056 12.1567 78.8854 12.0967 78.8854 12.03V9.83C78.8854 9.76333 78.9056 9.71 78.946 9.67C78.9999 9.61667 79.0605 9.59 79.1278 9.59H84.299C84.3663 9.59 84.4202 9.61667 84.4606 9.67C84.5145 9.71 84.5414 9.76333 84.5414 9.83V12.55C84.5414 13.55 84.3125 14.43 83.8546 15.19C83.4102 15.95 82.7773 16.5367 81.9558 16.95C81.1478 17.3633 80.2051 17.57 79.1278 17.57Z" fill="#353535"/>
<path d="M95.439 17.41C95.2909 17.41 95.1966 17.3433 95.1562 17.21L94.631 15.43C94.6041 15.3767 94.5704 15.35 94.53 15.35H89.9244C89.884 15.35 89.8504 15.3767 89.8234 15.43L89.2982 17.21C89.2578 17.3433 89.1636 17.41 89.0154 17.41H85.9248C85.844 17.41 85.7834 17.39 85.743 17.35C85.7026 17.2967 85.6959 17.2233 85.7228 17.13L90.0456 3.61C90.086 3.47667 90.1736 3.41 90.3082 3.41H94.126C94.2607 3.41 94.3482 3.47667 94.3886 3.61L98.7316 17.13C98.7451 17.1567 98.7518 17.19 98.7518 17.23C98.7518 17.35 98.6778 17.41 98.5296 17.41H95.439ZM90.6314 12.67C90.618 12.75 90.6449 12.79 90.7122 12.79H93.722C93.8028 12.79 93.8298 12.75 93.8028 12.67L92.2676 7.53C92.2542 7.47667 92.234 7.45667 92.207 7.47C92.1801 7.47 92.1599 7.49 92.1464 7.53L90.6314 12.67Z" fill="#353535"/>
<path d="M108.145 17.41C108.01 17.41 107.916 17.35 107.862 17.23L105.478 11.91C105.452 11.8567 105.411 11.83 105.357 11.83H104.024C103.957 11.83 103.923 11.8633 103.923 11.93V17.17C103.923 17.2367 103.896 17.2967 103.842 17.35C103.802 17.39 103.748 17.41 103.681 17.41H100.812C100.745 17.41 100.684 17.39 100.63 17.35C100.59 17.2967 100.57 17.2367 100.57 17.17V3.65C100.57 3.58333 100.59 3.53 100.63 3.49C100.684 3.43667 100.745 3.41 100.812 3.41H106.812C107.7 3.41 108.482 3.59 109.155 3.95C109.828 4.31 110.347 4.82333 110.71 5.49C111.087 6.14333 111.276 6.89667 111.276 7.75C111.276 8.64333 111.054 9.41667 110.609 10.07C110.165 10.7233 109.545 11.1967 108.751 11.49C108.684 11.5167 108.663 11.5633 108.69 11.63L111.357 17.13C111.384 17.1833 111.397 17.2233 111.397 17.25C111.397 17.3567 111.323 17.41 111.175 17.41H108.145ZM104.024 6.25C103.957 6.25 103.923 6.28333 103.923 6.35V9.19C103.923 9.25667 103.957 9.29 104.024 9.29H106.266C106.765 9.29 107.169 9.15667 107.478 8.89C107.788 8.61 107.943 8.24333 107.943 7.79C107.943 7.32333 107.788 6.95 107.478 6.67C107.169 6.39 106.765 6.25 106.266 6.25H104.024Z" fill="#353535"/>
<path d="M122.684 17.41C122.536 17.41 122.442 17.3433 122.401 17.21L121.876 15.43C121.849 15.3767 121.815 15.35 121.775 15.35H117.169C117.129 15.35 117.095 15.3767 117.068 15.43L116.543 17.21C116.503 17.3433 116.409 17.41 116.26 17.41H113.17C113.089 17.41 113.028 17.39 112.988 17.35C112.948 17.2967 112.941 17.2233 112.968 17.13L117.291 3.61C117.331 3.47667 117.419 3.41 117.553 3.41H121.371C121.506 3.41 121.593 3.47667 121.634 3.61L125.977 17.13C125.99 17.1567 125.997 17.19 125.997 17.23C125.997 17.35 125.923 17.41 125.775 17.41H122.684ZM117.876 12.67C117.863 12.75 117.89 12.79 117.957 12.79H120.967C121.048 12.79 121.075 12.75 121.048 12.67L119.513 7.53C119.499 7.47667 119.479 7.45667 119.452 7.47C119.425 7.47 119.405 7.49 119.391 7.53L117.876 12.67Z" fill="#353535"/>
<path d="M57.8792 22.5767C57.9465 22.5767 58.0004 22.6033 58.0408 22.6567C58.0947 22.6967 58.1216 22.75 58.1216 22.8167V25.1967C58.1216 25.2633 58.0947 25.3233 58.0408 25.3767C58.0004 25.4167 57.9465 25.4367 57.8792 25.4367H54.3442C54.2769 25.4367 54.2432 25.47 54.2432 25.5367V36.3367C54.2432 36.4033 54.2163 36.4633 54.1624 36.5167C54.122 36.5567 54.0681 36.5767 54.0008 36.5767H51.1324C51.0651 36.5767 51.0045 36.5567 50.9506 36.5167C50.9102 36.4633 50.89 36.4033 50.89 36.3367V25.5367C50.89 25.47 50.8563 25.4367 50.789 25.4367H47.3752C47.3079 25.4367 47.2473 25.4167 47.1934 25.3767C47.153 25.3233 47.1328 25.2633 47.1328 25.1967V22.8167C47.1328 22.75 47.153 22.6967 47.1934 22.6567C47.2473 22.6033 47.3079 22.5767 47.3752 22.5767H57.8792Z" fill="#353535"/>
<path d="M70.9589 25.1767C70.9589 25.2433 70.932 25.3033 70.8781 25.3567C70.8377 25.3967 70.7838 25.4167 70.7165 25.4167H64.3737C64.3064 25.4167 64.2727 25.45 64.2727 25.5167V27.9767C64.2727 28.0433 64.3064 28.0767 64.3737 28.0767H68.4339C68.5012 28.0767 68.5551 28.1033 68.5955 28.1567C68.6494 28.1967 68.6763 28.25 68.6763 28.3167V30.6567C68.6763 30.7233 68.6494 30.7833 68.5955 30.8367C68.5551 30.8767 68.5012 30.8967 68.4339 30.8967H64.3737C64.3064 30.8967 64.2727 30.93 64.2727 30.9967V33.6367C64.2727 33.7033 64.3064 33.7367 64.3737 33.7367H70.7165C70.7838 33.7367 70.8377 33.7633 70.8781 33.8167C70.932 33.8567 70.9589 33.91 70.9589 33.9767V36.3367C70.9589 36.4033 70.932 36.4633 70.8781 36.5167C70.8377 36.5567 70.7838 36.5767 70.7165 36.5767H61.1619C61.0946 36.5767 61.034 36.5567 60.9801 36.5167C60.9397 36.4633 60.9195 36.4033 60.9195 36.3367V22.8167C60.9195 22.75 60.9397 22.6967 60.9801 22.6567C61.034 22.6033 61.0946 22.5767 61.1619 22.5767H70.7165C70.7838 22.5767 70.8377 22.6033 70.8781 22.6567C70.932 22.6967 70.9589 22.75 70.9589 22.8167V25.1767Z" fill="#353535"/>
<path d="M79.116 36.7367C78.0386 36.7367 77.0892 36.53 76.2678 36.1167C75.4598 35.7033 74.8268 35.1167 74.369 34.3567C73.9246 33.5967 73.7024 32.7167 73.7024 31.7167V27.3967C73.7024 26.41 73.9246 25.5433 74.369 24.7967C74.8268 24.0367 75.4598 23.45 76.2678 23.0367C77.0892 22.6233 78.0386 22.4167 79.116 22.4167C80.1933 22.4167 81.136 22.6167 81.944 23.0167C82.7654 23.4033 83.3984 23.9567 83.8428 24.6767C84.3006 25.3833 84.5296 26.2033 84.5296 27.1367C84.5296 27.2033 84.5026 27.2567 84.4488 27.2967C84.4084 27.3367 84.3545 27.3567 84.2872 27.3567L81.4188 27.5367C81.2572 27.5367 81.1764 27.4633 81.1764 27.3167C81.1764 26.69 80.9878 26.19 80.6108 25.8167C80.2337 25.4433 79.7354 25.2567 79.116 25.2567C78.4965 25.2567 77.9982 25.45 77.6212 25.8367C77.2441 26.21 77.0556 26.7033 77.0556 27.3167V31.8567C77.0556 32.47 77.2441 32.9633 77.6212 33.3367C77.9982 33.71 78.4965 33.8967 79.116 33.8967C79.7354 33.8967 80.2337 33.71 80.6108 33.3367C80.9878 32.9633 81.1764 32.47 81.1764 31.8567C81.1764 31.71 81.2572 31.6367 81.4188 31.6367L84.2872 31.7767C84.3545 31.7767 84.4084 31.7967 84.4488 31.8367C84.5026 31.8767 84.5296 31.9233 84.5296 31.9767C84.5296 32.9233 84.3006 33.7567 83.8428 34.4767C83.3984 35.1967 82.7654 35.7567 81.944 36.1567C81.136 36.5433 80.1933 36.7367 79.116 36.7367Z" fill="#353535"/>
<path d="M94.9132 22.8167C94.9132 22.75 94.9334 22.6967 94.9738 22.6567C95.0277 22.6033 95.0883 22.5767 95.1556 22.5767H98.024C98.0913 22.5767 98.1452 22.6033 98.1856 22.6567C98.2395 22.6967 98.2664 22.75 98.2664 22.8167V36.3367C98.2664 36.4033 98.2395 36.4633 98.1856 36.5167C98.1452 36.5567 98.0913 36.5767 98.024 36.5767H95.1556C95.0883 36.5767 95.0277 36.5567 94.9738 36.5167C94.9334 36.4633 94.9132 36.4033 94.9132 36.3367V31.0167C94.9132 30.95 94.8795 30.9167 94.8122 30.9167H91.0348C90.9675 30.9167 90.9338 30.95 90.9338 31.0167V36.3367C90.9338 36.4033 90.9069 36.4633 90.853 36.5167C90.8126 36.5567 90.7587 36.5767 90.6914 36.5767H87.823C87.7557 36.5767 87.6951 36.5567 87.6412 36.5167C87.6008 36.4633 87.5806 36.4033 87.5806 36.3367V22.8167C87.5806 22.75 87.6008 22.6967 87.6412 22.6567C87.6951 22.6033 87.7557 22.5767 87.823 22.5767H90.6914C90.7587 22.5767 90.8126 22.6033 90.853 22.6567C90.9069 22.6967 90.9338 22.75 90.9338 22.8167V27.9767C90.9338 28.0433 90.9675 28.0767 91.0348 28.0767H94.8122C94.8795 28.0767 94.9132 28.0433 94.9132 27.9767V22.8167Z" fill="#353535"/>
<path d="M100.663 33.5C100.663 33.3619 100.776 33.25 100.916 33.25H103.777C103.917 33.25 104.03 33.3619 104.03 33.5V36.3333C104.03 36.4714 103.917 36.5833 103.777 36.5833H100.916C100.776 36.5833 100.663 36.4714 100.663 36.3333V33.5Z" fill="#A51535"/>
</svg>
